<svg width="20" height="20" viewBox="0 0 20 20" fill="none" xmlns="http://www.w3.org/2000/svg">
<path fill-rule="evenodd" clip-rule="evenodd" d="M10 0C10.5523 4.76838e-07 11 0.447716 11 1L11 9L19 9.00001C19.5523 9.00001 20 9.44772 20 10C20 10.5523 19.5523 11 19 11L11 11L11 19C11 19.5523 10.5523 20 10 20C9.44772 20 9.00001 19.5523 9.00001 19L9 11L1 11C0.447716 11 5.36442e-07 10.5523 0 10C-4.76837e-07 9.44772 0.447714 9.00001 1 9.00001L9 9L9.00001 1C9.00001 0.447714 9.44772 -4.76837e-07 10 0Z" fill="#A2004E"/>
</svg>
